<?xml version="1.0" standalone="no"?>
<!DOCTYPE svg PUBLIC "-//W3C//DTD SVG 20010904//EN"
 "http://www.w3.org/TR/2001/REC-SVG-20010904/DTD/svg10.dtd">
<svg version="1.0" xmlns="http://www.w3.org/2000/svg"
 width="700.000000pt" height="700.000000pt" viewBox="0 0 700.000000 700.000000"
 preserveAspectRatio="xMidYMid meet">
<metadata>
Created by potrace 1.11, written by Peter Selinger 2001-2013
</metadata>
<g transform="translate(0.000000,700.000000) scale(0.100000,-0.100000)"
fill="#000000" stroke="none">
<path d="M1128 6984 c-545 -99 -966 -538 -1100 -1144 l-23 -105 0 -2220 c0
-2495 -6 -2287 75 -2535 80 -244 211 -455 389 -622 175 -165 346 -260 583
-325 l103 -28 2310 -3 c2013 -2 2320 0 2396 13 547 94 971 529 1111 1140 l22
100 3 2205 c3 2204 3 2205 -18 2330 -61 364 -242 689 -505 909 -158 132 -313
211 -522 269 l-97 27 -2325 2 c-1950 1 -2337 -1 -2402 -13z m3367 -963 c338
-53 650 -138 918 -253 l47 -20 0 -374 c0 -206 -2 -374 -5 -374 -3 0 -50 22
-105 50 -240 120 -555 227 -810 275 -234 43 -554 58 -768 34 -635 -69 -1099
-424 -1317 -1004 -50 -135 -99 -332 -121 -490 -25 -182 -26 -629 0 -800 74
-508 248 -866 549 -1130 225 -198 492 -314 842 -366 115 -18 508 -18 630 -1
356 50 666 144 978 297 l127 63 0 -373 0 -372 -152 -61 c-410 -162 -785 -237
-1253 -249 -554 -14 -947 62 -1351 262 -487 241 -863 656 -1074 1185 -211 529
-256 1282 -115 1915 81 365 255 725 477 990 392 467 916 731 1611 810 193 22
710 14 892 -14z"/>
</g>
</svg>
