<?xml version="1.0" standalone="no"?>
<!DOCTYPE svg PUBLIC "-//W3C//DTD SVG 20010904//EN"
 "http://www.w3.org/TR/2001/REC-SVG-20010904/DTD/svg10.dtd">
<svg version="1.0" xmlns="http://www.w3.org/2000/svg"
 width="606.000000pt" height="606.000000pt" viewBox="0 0 606.000000 606.000000"
 preserveAspectRatio="xMidYMid meet">
<metadata>
Created by potrace 1.11, written by Peter Selinger 2001-2013
</metadata>
<g transform="translate(0.000000,606.000000) scale(0.100000,-0.100000)"
fill="#000000" stroke="none">
<path d="M1005 5849 c-82 -13 -174 -35 -210 -49 -103 -41 -184 -78 -212 -97
-19 -13 -38 -23 -43 -23 -6 0 -10 -4 -10 -10 0 -5 -5 -10 -11 -10 -6 0 -16 -6
-24 -12 -7 -7 -28 -24 -47 -38 -67 -50 -187 -181 -241 -262 -68 -103 -108
-182 -137 -273 -12 -38 -25 -77 -28 -85 -9 -26 -19 -72 -30 -140 -9 -57 -9
-3509 0 -3570 32 -216 135 -448 265 -600 50 -58 61 -69 114 -116 87 -77 108
-94 118 -94 5 0 11 -3 13 -7 11 -27 235 -133 311 -148 9 -2 21 -6 26 -10 12
-7 90 -23 151 -31 25 -3 135 -7 245 -9 110 -2 200 -4 200 -5 0 -1 25 -4 55 -6
66 -4 81 -7 99 -18 7 -5 111 -9 230 -8 269 0 251 -1 251 20 0 16 44 17 780 17
429 0 780 -3 780 -6 0 -7 -108 -24 -125 -20 -5 2 -7 -1 -3 -5 5 -4 189 -8 410
-9 237 -1 418 -6 440 -12 28 -8 35 -8 32 2 -3 7 2 19 10 27 21 22 288 16 325
-7 6 -3 14 2 19 11 8 14 31 18 143 20 74 2 145 6 159 9 14 3 39 8 55 11 17 2
48 10 70 16 22 5 45 11 50 13 6 1 17 5 25 8 8 4 35 14 59 22 112 39 309 169
398 263 182 192 293 416 330 662 10 66 11 3517 1 3575 -23 138 -49 224 -105
344 -36 79 -132 231 -145 231 -4 0 -8 5 -8 12 0 17 -152 162 -224 213 -125 88
-277 157 -413 186 -32 7 -65 15 -73 18 -25 9 -4021 9 -4075 0z"/>
</g>
</svg>
